<svg xmlns="http://www.w3.org/2000/svg" id="Capa_1" height="512" viewBox="0 0 512 512" width="512"><g><g><path d="m391 144.699v76l-135 57.9-135-57.9v-76z" fill="#3d4566"></path><path d="m391 144.699v76l-135 57.9v-133.9z" fill="#2e2e4d"></path><path d="m458.5 354.5c0 20.7-16.8 37.5-37.5 37.5h-361.199l-43.801-15c8.401 0 15-6.599 15-15v-15c0-8.401-6.599-15-15-15l34.2-15h370.8c20.7 0 37.5 16.8 37.5 37.5z" fill="#f3f5f9"></path><path d="m421 392h-165v-75h165c20.7 0 37.5 16.8 37.5 37.5s-16.8 37.5-37.5 37.5z" fill="#e1e6f0"></path><path d="m481 354.5c0 29.099-23.401 52.5-52.5 52.5l-41.4 15h-266.1l-37.5-15h-67.5v-30h412.5c12.299 0 22.5-10.201 22.5-22.5s-10.201-22.5-22.5-22.5h-412.5v-30h195l7.5 15h15l7.5-15h187.5c29.099 0 52.5 23.401 52.5 52.5z" fill="#ffdf40"></path><path d="m481 354.5c0 29.099-23.401 52.5-52.5 52.5l-41.4 15h-131.1v-45h172.5c12.299 0 22.5-10.201 22.5-22.5s-10.201-22.5-22.5-22.5h-172.5v-30h172.5c29.099 0 52.5 23.401 52.5 52.5z" fill="#ffbe40"></path><path d="m496 482-42.599 15h-399.901v-75h416.4l26.1 15c-8.401 0-15 6.599-15 15v15c0 8.401 6.599 15 15 15z" fill="#f3f5f9"></path><path d="m496 482-42.599 15h-197.401v-75h213.9l26.1 15c-8.401 0-15 6.599-15 15v15c0 8.401 6.599 15 15 15z" fill="#e1e6f0"></path><path d="m61 459.5c0 12.299 10.201 22.5 22.5 22.5h412.5v30h-412.5c-29.099 0-52.5-23.401-52.5-52.5s23.401-52.5 52.5-52.5h412.5v30h-412.5c-12.299 0-22.5 10.201-22.5 22.5z" fill="#82e1d8"></path><g><path d="m421 118.861h30v153.139h-30z" fill="#ffbe40"></path></g><path d="m256 407h240v30h-240z" fill="#6dcdd6"></path><path d="m211 302h30v150h-30z" fill="#ff98cd"></path><g><path d="m256 0-248.101 106 248.101 106.199 248.101-106.199z" fill="#4d5e80"></path></g><path d="m504.101 106-248.101 106.199v-212.199z" fill="#3d4566"></path></g><path d="m256 482h240v30h-240z" fill="#6dcdd6"></path></g></svg>