<svg xmlns="http://www.w3.org/2000/svg" xmlns:xlink="http://www.w3.org/1999/xlink" width="196" height="80" viewBox="0 0 196 80"><defs><clipPath id="clip-path"><rect id="Rectangle_17270" data-name="Rectangle 17270" width="196" height="80" transform="translate(6895.38 -1258.927)" fill="#fff"></rect></clipPath></defs><g id="Mask_Group_6418" data-name="Mask Group 6418" transform="translate(-6895.38 1258.927)" clip-path="url(#clip-path)"><g id="Group_29599" data-name="Group 29599" transform="translate(6899.568 -1257.115)"><g id="Group_29599-2" data-name="Group 29599" transform="translate(0 0)"><path id="Path_61577" data-name="Path 61577" d="M1001.158,439.093c1.014-1.924-27.038,10.615-36.342,17.635-3.289,2.473-3.161,5.441.737,7.771l12.367,7.361c5.5,2.681,3.566,4.976,2.508,6.163a178.561,178.561,0,0,1-27.528,18.96.2.2,0,0,0-.069.168c-.049,2.186,45.583-12.065,47.982-21.379,1.073-4.225-13.638-9.893-17.842-12.728-2.473-1.642-2.1-4.4.094-6.515Z" transform="translate(-861.239 -438.895)" fill="#e82127" fill-rule="evenodd"></path><path id="Path_61578" data-name="Path 61578" d="M1189.266,465.55h0a6.144,6.144,0,0,0-8.725,0h0a6.218,6.218,0,0,0,0,8.771h0a6.149,6.149,0,0,0,8.726,0h0a6.224,6.224,0,0,0,0-8.77Zm-.7,7.761-1.064-1.672a5.317,5.317,0,0,0-.835-1.019,2.583,2.583,0,0,0-.609-.381,2.651,2.651,0,0,0,1.623-.708,1.917,1.917,0,0,0,.524-1.37,2.182,2.182,0,0,0-.316-1.152,1.714,1.714,0,0,0-.846-.727,4.5,4.5,0,0,0-1.547-.208h-3.375v7.647h.989v-3.393h1.167a3.314,3.314,0,0,1,.563.034,1.54,1.54,0,0,1,.46.2,2.253,2.253,0,0,1,.495.494q.282.364.727,1.054l.99,1.593h.594a4.947,4.947,0,0,1-6.768-.247,5.021,5.021,0,0,1,0-7.073,4.947,4.947,0,0,1,7.034,0,5.01,5.01,0,0,1,.144,6.925Zm-3.275-3.864h-2.166v-2.532h2.409a1.839,1.839,0,0,1,1.236.346,1.148,1.148,0,0,1,.391.89,1.247,1.247,0,0,1-.2.687,1.154,1.154,0,0,1-.594.46,3.219,3.219,0,0,1-1.058.163Z" transform="translate(-1003.031 -454.494)" fill="#221f1f" fill-rule="evenodd"></path><g id="Group_29597" data-name="Group 29597" transform="translate(0 9.384)"><path id="Path_61579" data-name="Path 61579" d="M708.157,612.81h3.057v7.915h2.078V612.81h3.082v-1.667h-8.216Z" transform="translate(-707.702 -556.374)" fill="#221f1f" fill-rule="evenodd"></path><rect id="Rectangle_17258" data-name="Rectangle 17258" width="2.097" height="9.587" transform="translate(9.656 54.749)" fill="#221f1f"></rect><path id="Path_61580" data-name="Path 61580" d="M748.4,618l-3.893-6.925h-2.542v9.586h2.053l-.079-7.242,4.091,7.242h2.305v-9.586H748.32Z" transform="translate(-728.914 -556.348)" fill="#221f1f" fill-rule="evenodd"></path><path id="Path_61581" data-name="Path 61581" d="M777.529,612.486a5.729,5.729,0,0,0-.955,3.586,4.812,4.812,0,0,0,1.088,3.4,4.393,4.393,0,0,0,3.374,1.217h3.373V619.02h-3.294a3.725,3.725,0,0,1-1.212-.148,1.44,1.44,0,0,1-.831-.777,6.156,6.156,0,0,1,.342-4.66,2.018,2.018,0,0,1,1.7-.7H784.4V611.1h-3.319A4.255,4.255,0,0,0,777.529,612.486Z" transform="translate(-750.639 -556.347)" fill="#221f1f" fill-rule="evenodd"></path><path id="Path_61582" data-name="Path 61582" d="M802.116,611.081l-4.007,9.587h2.127l.821-2.3h4.155l.876,2.3h2.226l-4.071-9.587Zm-.416,5.6,1.41-3.665,1.439,3.665Z" transform="translate(-764.15 -556.332)" fill="#221f1f" fill-rule="evenodd"></path><path id="Path_61583" data-name="Path 61583" d="M825.228,614.761l-2.364-3.681h-2.226l3.6,5.377v4.214h2.028v-4.214l3.651-5.377H827.6Z" transform="translate(-778.29 -556.332)" fill="#221f1f" fill-rule="evenodd"></path><rect id="Rectangle_17259" data-name="Rectangle 17259" width="4.462" height="1.672" transform="translate(52.484 59.903)" fill="#221f1f"></rect><rect id="Rectangle_17260" data-name="Rectangle 17260" width="2.097" height="9.587" transform="translate(68.57 54.749)" fill="#221f1f"></rect><path id="Path_61584" data-name="Path 61584" d="M901.32,612.486a5.74,5.74,0,0,0-.95,3.586,4.818,4.818,0,0,0,1.088,3.4,4.392,4.392,0,0,0,3.374,1.217H908.2V619.02h-3.294a2.345,2.345,0,0,1-1.7-.525,2.5,2.5,0,0,1-.549-1.825H908.2V615h-5.545a2.227,2.227,0,0,1,.584-1.672,2.3,2.3,0,0,1,1.667-.568H908.2V611.1h-3.319a4.259,4.259,0,0,0-3.561,1.39Z" transform="translate(-828.328 -556.347)" fill="#221f1f" fill-rule="evenodd"></path><path id="Path_61585" data-name="Path 61585" d="M866.352,612.81H869.4v7.915h2.078V612.81h3.082v-1.667h-8.217Z" transform="translate(-806.977 -556.374)" fill="#221f1f" fill-rule="evenodd"></path><path id="Path_61586" data-name="Path 61586" d="M932.572,618l-3.888-6.925h-2.548v9.586h2.053l-.074-7.242,4.091,7.242h2.305v-9.586H932.5Z" transform="translate(-844.492 -556.348)" fill="#221f1f" fill-rule="evenodd"></path><rect id="Rectangle_17261" data-name="Rectangle 17261" width="2.097" height="9.587" transform="translate(95.583 54.749)" fill="#221f1f"></rect><path id="Path_61587" data-name="Path 61587" d="M973.836,612.485a5.749,5.749,0,0,0-.949,3.586,4.816,4.816,0,0,0,1.088,3.4,4.393,4.393,0,0,0,3.373,1.217h3.374V619.02h-3.295a3.717,3.717,0,0,1-1.212-.149,1.44,1.44,0,0,1-.831-.776,6.159,6.159,0,0,1,.337-4.66,2.027,2.027,0,0,1,1.7-.7h3.295V611.1h-3.32A4.266,4.266,0,0,0,973.836,612.485Z" transform="translate(-873.836 -556.346)" fill="#221f1f" fill-rule="evenodd"></path><path id="Path_61588" data-name="Path 61588" d="M1003.541,614.964h-3.68v-3.883h-1.979v9.586h1.979v-4.012h3.68v4.012h1.979v-9.586h-1.979Z" transform="translate(-889.497 -556.332)" fill="#221f1f" fill-rule="evenodd"></path><rect id="Rectangle_17262" data-name="Rectangle 17262" width="4.462" height="1.672" transform="translate(118.857 59.903)" fill="#221f1f"></rect><path id="Path_61589" data-name="Path 61589" d="M1051.605,611.143h-8.216v1.667h3.057v7.915h2.078V612.81h3.082Z" transform="translate(-918.081 -556.374)" fill="#221f1f" fill-rule="evenodd"></path><path id="Path_61590" data-name="Path 61590" d="M1065.237,611.081l-4.007,9.587h2.122l.821-2.3h4.155l.876,2.3h2.226l-4.071-9.587Zm-.415,5.6,1.415-3.665,1.444,3.665Z" transform="translate(-929.255 -556.332)" fill="#221f1f" fill-rule="evenodd"></path><path id="Path_61591" data-name="Path 61591" d="M1096.874,618l-3.893-6.925h-2.543v9.586h2.053l-.079-7.242,4.091,7.242h2.3v-9.586H1096.8Z" transform="translate(-947.596 -556.348)" fill="#221f1f" fill-rule="evenodd"></path><path id="Path_61592" data-name="Path 61592" d="M1198.065,611.081v3.883h-3.681v-3.883h-1.979v9.587h1.979v-4.012h3.681v4.012h1.978v-9.587Z" transform="translate(-1011.568 -556.332)" fill="#221f1f" fill-rule="evenodd"></path><path id="Path_61593" data-name="Path 61593" d="M1129.02,612.81h3.057v7.915h2.078V612.81h3.082v-1.667h-8.216Z" transform="translate(-971.802 -556.374)" fill="#221f1f" fill-rule="evenodd"></path><path id="Path_61594" data-name="Path 61594" d="M1171.151,618l-3.888-6.925h-2.543v9.586h2.053l-.079-7.242,4.091,7.242h2.305v-9.586h-2.038Z" transform="translate(-994.191 -556.348)" fill="#221f1f" fill-rule="evenodd"></path><rect id="Rectangle_17263" data-name="Rectangle 17263" width="2.097" height="9.587" transform="translate(166.404 54.749)" fill="#221f1f"></rect><rect id="Rectangle_17264" data-name="Rectangle 17264" width="13.831" height="42.105" transform="translate(76.109 0.203)" fill="#221f1f"></rect><path id="Path_61595" data-name="Path 61595" d="M1105.288,489.447l9.616,16.967h14.7l-24.313-42.323-24.312,42.323h14.7Z" transform="translate(-941.669 -464.091)" fill="#221f1f" fill-rule="evenodd"></path><path id="Path_61596" data-name="Path 61596" d="M731.321,489.507l11.461,20.424,11.441-20.424,9.636,16.991H778.6l-24.372-42.407-11.447,19.94-11.451-19.94-24.392,42.462h14.731Z" transform="translate(-706.934 -464.091)" fill="#221f1f" fill-rule="evenodd"></path><rect id="Rectangle_17265" data-name="Rectangle 17265" width="89.9" height="1.885" transform="translate(0.04 47.215)" fill="#221f1f"></rect><rect id="Rectangle_17266" data-name="Rectangle 17266" width="71.706" height="1.885" transform="translate(116.171 47.215)" fill="#221f1f"></rect><path id="Path_61597" data-name="Path 61597" d="M968.335,603.659h-2.24l-1.7,2.166,1.261-.029Z" transform="translate(-868.503 -551.675)" fill="#221f1f" fill-rule="evenodd"></path><rect id="Rectangle_17267" data-name="Rectangle 17267" width="1.989" height="1.815" transform="translate(75.782 65.256)" fill="#221f1f"></rect><path id="Path_61598" data-name="Path 61598" d="M905.813,606h1.751l.92-.954.8.954h1.929l-1.929-2.058h-1.558Z" transform="translate(-831.737 -551.858)" fill="#221f1f" fill-rule="evenodd"></path><path id="Path_61599" data-name="Path 61599" d="M804.557,606h1.751l.92-.954.8.954h1.929l-1.929-2.058h-1.573Z" transform="translate(-768.194 -551.858)" fill="#221f1f" fill-rule="evenodd"></path><rect id="Rectangle_17268" data-name="Rectangle 17268" width="1.989" height="1.815" transform="translate(38.069 65.256)" fill="#221f1f"></rect><rect id="Rectangle_17269" data-name="Rectangle 17269" width="1.989" height="1.815" transform="translate(136.066 65.256)" fill="#221f1f"></rect><path id="Path_61600" data-name="Path 61600" d="M1067.67,606h1.751l.921-.954.8.954h1.929l-1.929-2.058h-1.573Z" transform="translate(-933.33 -551.858)" fill="#221f1f" fill-rule="evenodd"></path><path id="Path_61601" data-name="Path 61601" d="M1148.92,603.659l2.681,2.137,1.261.029-1.7-2.166Z" transform="translate(-984.322 -551.675)" fill="#221f1f" fill-rule="evenodd"></path></g></g></g></g></svg>